<svg width="116" height="17" viewBox="0 0 116 17" fill="none" xmlns="http://www.w3.org/2000/svg">
<path d="M4.66072 16.322H0.5625L5.88556 0.54541H10.9621L16.2852 16.322H12.187L8.48161 4.52037H8.35836L4.66072 16.322ZM4.11378 10.1131H12.68V13.0095H4.11378V10.1131Z" fill="#E23744"/>
<path d="M21.3194 16.5223C20.5644 16.5223 19.8942 16.3965 19.3088 16.1448C18.7284 15.8881 18.2688 15.5029 17.9299 14.9893C17.596 14.4706 17.4291 13.821 17.4291 13.0404C17.4291 12.383 17.5447 11.8283 17.7758 11.3764C18.0069 10.9245 18.3253 10.5573 18.731 10.2748C19.1367 9.99237 19.6041 9.77924 20.133 9.63544C20.662 9.48651 21.2269 9.38637 21.8278 9.33501C22.5005 9.27338 23.0424 9.20919 23.4532 9.14242C23.8641 9.07053 24.1619 8.97038 24.3468 8.84199C24.5368 8.70847 24.6318 8.52102 24.6318 8.27964V8.24112C24.6318 7.84568 24.4957 7.54011 24.2235 7.32442C23.9514 7.10872 23.5842 7.00087 23.122 7.00087C22.6238 7.00087 22.2232 7.10872 21.9202 7.32442C21.6172 7.54011 21.4246 7.83798 21.3425 8.21801L17.8682 8.09476C17.9709 7.37577 18.2354 6.73382 18.6617 6.16891C19.0931 5.59885 19.6837 5.15205 20.4335 4.82851C21.1884 4.49983 22.0948 4.33549 23.1528 4.33549C23.9077 4.33549 24.6036 4.42537 25.2404 4.60511C25.8772 4.77972 26.4319 5.0365 26.9043 5.37545C27.3768 5.70927 27.7414 6.12012 27.9982 6.608C28.2601 7.09588 28.3911 7.6531 28.3911 8.27964V16.322H24.8475V14.6735H24.7551C24.5445 15.0741 24.2749 15.413 23.9462 15.6903C23.6227 15.9677 23.2401 16.1756 22.7984 16.3143C22.3619 16.453 21.8689 16.5223 21.3194 16.5223ZM22.4826 14.0572C22.8883 14.0572 23.2529 13.975 23.5765 13.8107C23.9051 13.6464 24.1671 13.4204 24.3622 13.1328C24.5574 12.8401 24.6549 12.5011 24.6549 12.1159V10.9912C24.5471 11.0477 24.4161 11.0991 24.2621 11.1453C24.1131 11.1915 23.9488 11.2352 23.769 11.2763C23.5893 11.3174 23.4044 11.3533 23.2144 11.3841C23.0244 11.4149 22.8421 11.4432 22.6675 11.4689C22.3131 11.5253 22.0101 11.6127 21.7585 11.7308C21.5119 11.8489 21.3219 12.003 21.1884 12.193C21.06 12.3779 20.9958 12.5987 20.9958 12.8555C20.9958 13.2458 21.1345 13.5436 21.4118 13.7491C21.6943 13.9545 22.0512 14.0572 22.4826 14.0572Z" fill="#E23744"/>
<path d="M34.0916 13.2175L34.107 8.72644H34.6309L37.9587 4.48956H42.2264L37.2808 10.5599H36.2871L34.0916 13.2175ZM30.6944 16.322V0.54541H34.4614V16.322H30.6944ZM38.0435 16.322L34.9467 11.4072L37.4272 8.73414L42.3959 16.322H38.0435Z" fill="#E23744"/>
<path d="M46.9101 16.5223C46.1552 16.5223 45.485 16.3965 44.8995 16.1448C44.3192 15.8881 43.8596 15.5029 43.5206 14.9893C43.1868 14.4706 43.0199 13.821 43.0199 13.0404C43.0199 12.383 43.1354 11.8283 43.3665 11.3764C43.5976 10.9245 43.9161 10.5573 44.3218 10.2748C44.7275 9.99237 45.1948 9.77924 45.7238 9.63544C46.2528 9.48651 46.8177 9.38637 47.4185 9.33501C48.0913 9.27338 48.6331 9.20919 49.044 9.14242C49.4548 9.07053 49.7527 8.97038 49.9376 8.84199C50.1276 8.70847 50.2226 8.52102 50.2226 8.27964V8.24112C50.2226 7.84568 50.0865 7.54011 49.8143 7.32442C49.5421 7.10872 49.1749 7.00087 48.7127 7.00087C48.2146 7.00087 47.814 7.10872 47.511 7.32442C47.208 7.54011 47.0154 7.83798 46.9332 8.21801L43.459 8.09476C43.5617 7.37577 43.8262 6.73382 44.2524 6.16891C44.6838 5.59885 45.2744 5.15205 46.0242 4.82851C46.7792 4.49983 47.6856 4.33549 48.7435 4.33549C49.4985 4.33549 50.1943 4.42537 50.8311 4.60511C51.468 4.77972 52.0226 5.0365 52.4951 5.37545C52.9676 5.70927 53.3322 6.12012 53.589 6.608C53.8509 7.09588 53.9818 7.6531 53.9818 8.27964V16.322H50.4383V14.6735H50.3458C50.1353 15.0741 49.8657 15.413 49.537 15.6903C49.2134 15.9677 48.8308 16.1756 48.3892 16.3143C47.9526 16.453 47.4596 16.5223 46.9101 16.5223ZM48.0733 14.0572C48.479 14.0572 48.8437 13.975 49.1672 13.8107C49.4959 13.6464 49.7578 13.4204 49.953 13.1328C50.1481 12.8401 50.2457 12.5011 50.2457 12.1159V10.9912C50.1378 11.0477 50.0069 11.0991 49.8528 11.1453C49.7039 11.1915 49.5395 11.2352 49.3598 11.2763C49.1801 11.3174 48.9952 11.3533 48.8052 11.3841C48.6151 11.4149 48.4328 11.4432 48.2582 11.4689C47.9039 11.5253 47.6009 11.6127 47.3492 11.7308C47.1027 11.8489 46.9127 12.003 46.7792 12.193C46.6508 12.3779 46.5866 12.5987 46.5866 12.8555C46.5866 13.2458 46.7252 13.5436 47.0026 13.7491C47.285 13.9545 47.6419 14.0572 48.0733 14.0572Z" fill="#E23744"/>
<path d="M56.2852 16.322V4.48956H59.9443V6.64652H60.0676C60.2832 5.8659 60.635 5.28558 61.1229 4.90554C61.6108 4.52037 62.1783 4.32779 62.8254 4.32779C63 4.32779 63.1797 4.34063 63.3646 4.36631C63.5495 4.38685 63.7215 4.42023 63.8807 4.46645V7.7404C63.701 7.67878 63.4648 7.62999 63.172 7.59404C62.8844 7.55809 62.6276 7.54011 62.4017 7.54011C61.9549 7.54011 61.5517 7.64026 61.1922 7.84055C60.8379 8.0357 60.558 8.31046 60.3526 8.66481C60.1523 9.01403 60.0521 9.42488 60.0521 9.89736V16.322H56.2852Z" fill="#E23744"/>
<path d="M75.7459 8.10246L72.2871 8.1949C72.2511 7.94839 72.1536 7.73013 71.9944 7.54011C71.8352 7.34496 71.6272 7.19346 71.3704 7.08561C71.1187 6.97263 70.826 6.91614 70.4922 6.91614C70.0557 6.91614 69.6833 7.00344 69.3752 7.17805C69.0722 7.35266 68.9233 7.5889 68.9284 7.88677C68.9233 8.11787 69.0157 8.31816 69.2057 8.48763C69.4009 8.65711 69.7475 8.7932 70.2457 8.89591L72.5259 9.32731C73.7071 9.55327 74.5853 9.92817 75.1605 10.452C75.7408 10.9758 76.0335 11.6691 76.0387 12.5319C76.0335 13.3434 75.7922 14.0495 75.3145 14.6504C74.8421 15.2512 74.195 15.7186 73.3733 16.0524C72.5516 16.3811 71.6118 16.5454 70.5538 16.5454C68.8642 16.5454 67.5315 16.1988 66.5558 15.5054C65.5851 14.807 65.0305 13.8723 64.8918 12.7014L68.6126 12.609C68.6947 13.0404 68.9079 13.369 69.2519 13.595C69.596 13.821 70.0351 13.9339 70.5692 13.9339C71.052 13.9339 71.4449 13.8441 71.7479 13.6643C72.0509 13.4846 72.2049 13.2458 72.2101 12.9479C72.2049 12.6809 72.0868 12.4677 71.8557 12.3085C71.6246 12.1442 71.2625 12.0158 70.7695 11.9234L68.705 11.5305C67.5187 11.3148 66.6354 10.9168 66.055 10.3365C65.4747 9.75099 65.1871 9.00633 65.1922 8.10246C65.1871 7.31158 65.3977 6.63625 65.8239 6.07646C66.2502 5.51155 66.8562 5.08016 67.6419 4.78229C68.4277 4.48442 69.3547 4.33549 70.4229 4.33549C72.0252 4.33549 73.2885 4.67188 74.213 5.34464C75.1374 6.01227 75.6484 6.93154 75.7459 8.10246Z" fill="#E23744"/>
<path d="M81.6602 9.57382V16.322H77.8933V0.54541H81.537V6.66192H81.6679C81.935 5.93267 82.3715 5.36261 82.9775 4.95177C83.5887 4.54092 84.3359 4.33549 85.2192 4.33549C86.0512 4.33549 86.7753 4.52037 87.3916 4.89014C88.0078 5.25477 88.4855 5.7709 88.8244 6.43852C89.1685 7.10615 89.338 7.88677 89.3328 8.78036V16.322H85.5659V9.51989C85.571 8.86253 85.4067 8.34897 85.0728 7.97921C84.739 7.60944 84.2691 7.42456 83.6631 7.42456C83.2677 7.42456 82.9185 7.51187 82.6155 7.68648C82.3176 7.85595 82.0839 8.0999 81.9144 8.4183C81.7501 8.73671 81.6654 9.12188 81.6602 9.57382Z" fill="#E23744"/>
<path d="M95.4513 9.57382V16.322H91.6843V4.48956H95.2664V6.66192H95.3973C95.6593 5.9378 96.1061 5.37032 96.7377 4.95947C97.3694 4.54348 98.1218 4.33549 98.9948 4.33549C99.8268 4.33549 100.548 4.52294 101.16 4.89784C101.776 5.2676 102.253 5.7863 102.592 6.45393C102.936 7.11643 103.106 7.8919 103.101 8.78036V16.322H99.3338V9.51989C99.3389 8.86253 99.172 8.34897 98.8331 7.97921C98.4993 7.60944 98.0345 7.42456 97.4388 7.42456C97.0433 7.42456 96.6941 7.51187 96.3911 7.68648C96.0932 7.85595 95.8621 8.0999 95.6978 8.4183C95.5386 8.73671 95.4564 9.12188 95.4513 9.57382Z" fill="#E23744"/>
<path d="M108.769 16.5223C108.014 16.5223 107.343 16.3965 106.758 16.1448C106.178 15.8881 105.718 15.5029 105.379 14.9893C105.045 14.4706 104.878 13.821 104.878 13.0404C104.878 12.383 104.994 11.8283 105.225 11.3764C105.456 10.9245 105.774 10.5573 106.18 10.2748C106.586 9.99237 107.053 9.77924 107.582 9.63544C108.111 9.48651 108.676 9.38637 109.277 9.33501C109.95 9.27338 110.492 9.20919 110.902 9.14242C111.313 9.07053 111.611 8.97038 111.796 8.84199C111.986 8.70847 112.081 8.52102 112.081 8.27964V8.24112C112.081 7.84568 111.945 7.54011 111.673 7.32442C111.401 7.10872 111.033 7.00087 110.571 7.00087C110.073 7.00087 109.672 7.10872 109.369 7.32442C109.066 7.54011 108.874 7.83798 108.792 8.21801L105.317 8.09476C105.42 7.37577 105.685 6.73382 106.111 6.16891C106.542 5.59885 107.133 5.15205 107.883 4.82851C108.638 4.49983 109.544 4.33549 110.602 4.33549C111.357 4.33549 112.053 4.42537 112.69 4.60511C113.326 4.77972 113.881 5.0365 114.354 5.37545C114.826 5.70927 115.191 6.12012 115.447 6.608C115.709 7.09588 115.84 7.6531 115.84 8.27964V16.322H112.297V14.6735H112.204C111.994 15.0741 111.724 15.413 111.395 15.6903C111.072 15.9677 110.689 16.1756 110.248 16.3143C109.811 16.453 109.318 16.5223 108.769 16.5223ZM109.932 14.0572C110.337 14.0572 110.702 13.975 111.026 13.8107C111.354 13.6464 111.616 13.4204 111.811 13.1328C112.007 12.8401 112.104 12.5011 112.104 12.1159V10.9912C111.996 11.0477 111.865 11.0991 111.711 11.1453C111.562 11.1915 111.398 11.2352 111.218 11.2763C111.038 11.3174 110.854 11.3533 110.664 11.3841C110.474 11.4149 110.291 11.4432 110.117 11.4689C109.762 11.5253 109.459 11.6127 109.208 11.7308C108.961 11.8489 108.771 12.003 108.638 12.193C108.509 12.3779 108.445 12.5987 108.445 12.8555C108.445 13.2458 108.584 13.5436 108.861 13.7491C109.143 13.9545 109.5 14.0572 109.932 14.0572Z" fill="#E23744"/>
</svg>
